<svg width="49" height="60" viewBox="0 0 49 60" fill="none" xmlns="http://www.w3.org/2000/svg">
<path d="M6.342 19.823C6.524 19.137 6.615 18.563 6.615 18.101C6.615 17.639 6.489 17.261 6.237 16.967C5.985 16.659 5.656 16.505 5.25 16.505C4.858 16.505 4.529 16.701 4.263 17.093C3.997 17.485 3.864 17.933 3.864 18.437C3.864 19.417 4.424 20.257 5.544 20.957C6.664 21.685 7.427 22.21 7.833 22.532C8.239 22.854 8.526 23.148 8.694 23.414C9.114 24.1 9.324 24.807 9.324 25.535C9.324 26.795 8.897 27.803 8.043 28.559C7.203 29.301 6.251 29.672 5.187 29.672C3.927 29.672 2.87 29.14 2.016 28.076C1.4 27.306 0.833 26.347 0.315 25.199L2.352 24.212C2.674 25.052 3.073 25.766 3.549 26.354C4.039 26.928 4.557 27.215 5.103 27.215C5.453 27.215 5.768 27.103 6.048 26.879C6.328 26.655 6.468 26.319 6.468 25.871C6.468 25.409 6.293 24.982 5.943 24.59C5.593 24.198 5.124 23.799 4.536 23.393C3.948 22.987 3.493 22.658 3.171 22.406C2.849 22.14 2.492 21.804 2.1 21.398C1.358 20.614 0.987 19.613 0.987 18.395C0.987 17.163 1.414 16.134 2.268 15.308C3.122 14.468 4.137 14.048 5.313 14.048C6.489 14.048 7.476 14.503 8.274 15.413C9.086 16.323 9.492 17.261 9.492 18.227C9.492 19.179 9.31 19.998 8.946 20.684L6.342 19.823ZM14.5268 22.312V23.832C14.0148 23.832 13.6201 23.8373 13.3428 23.848C13.3108 24.9147 13.2948 26.7067 13.2948 29.224L11.4068 29.048C11.4068 27.1813 11.4228 25.4907 11.4548 23.976C11.2948 23.976 10.9908 24.0027 10.5428 24.056L10.3028 22.744C10.5588 22.6907 10.9588 22.6213 11.5028 22.536C11.5241 21.7467 11.5668 20.5947 11.6308 19.08L13.5348 19.256C13.4708 20.312 13.4228 21.336 13.3908 22.328C13.6575 22.3173 14.0361 22.312 14.5268 22.312ZM15.2965 24.28C15.4565 23.448 15.7605 22.744 16.2085 22.168C16.6565 21.5813 17.2432 21.288 17.9685 21.288C18.6939 21.288 19.2272 21.592 19.5685 22.2C19.9205 22.7973 20.0965 23.6507 20.0965 24.76C20.0965 25.8693 20.0325 27.4 19.9045 29.352L18.5605 29.24L18.4325 28.728C17.9312 29.016 17.4192 29.16 16.8965 29.16C16.3739 29.16 15.9419 28.9893 15.6005 28.648C15.2592 28.296 15.0885 27.7947 15.0885 27.144C15.0885 26.4933 15.4085 25.9333 16.0485 25.464C16.6992 24.9947 17.4459 24.7493 18.2885 24.728V24.296C18.2885 23.4533 18.0859 23.032 17.6805 23.032C17.4779 23.032 17.2912 23.176 17.1205 23.464C16.9605 23.7413 16.8432 24.0613 16.7685 24.424L15.2965 24.28ZM16.7205 27.24C16.7205 27.5813 16.9232 27.752 17.3285 27.752C17.6059 27.752 17.8992 27.688 18.2085 27.56L18.2405 26.216C17.7392 26.2587 17.3605 26.3867 17.1045 26.6C16.8485 26.8027 16.7205 27.016 16.7205 27.24ZM21.8989 21.368L23.7229 21.544V29.224L21.8989 29.048V21.368ZM22.0269 18.552L23.8189 18.76L23.6589 20.552L21.8669 20.328L22.0269 18.552ZM28.6882 21.384C30.0962 21.384 30.8002 22.5573 30.8002 24.904C30.8002 26.1413 30.7308 27.4533 30.5922 28.84L28.7202 28.664C28.8375 27.448 28.8962 26.2213 28.8962 24.984C28.8962 23.736 28.7202 23.112 28.3682 23.112C28.1975 23.112 27.9788 23.544 27.7122 24.408C27.4455 25.2613 27.2802 26.0987 27.2162 26.92C27.2375 27.3573 27.2802 28.1467 27.3442 29.288L25.4722 29.112C25.3548 27.608 25.2962 26.2853 25.2962 25.144C25.2962 24.0027 25.3282 22.9787 25.3922 22.072L26.5762 22.2C26.5975 22.2853 26.6775 22.632 26.8162 23.24C27.4348 22.0027 28.0588 21.384 28.6882 21.384ZM34.3014 27.848C34.7068 27.848 35.1388 27.4587 35.5974 26.68L36.8134 27.4C36.6108 27.752 36.4134 28.0507 36.2214 28.296C36.0401 28.5413 35.7628 28.776 35.3894 29C35.0161 29.224 34.6001 29.336 34.1414 29.336C33.4694 29.336 32.9041 29.0533 32.4454 28.488C31.9868 27.912 31.7574 27.1387 31.7574 26.168C31.7574 25.0587 31.9548 24.024 32.3494 23.064C32.5628 22.5627 32.8668 22.1573 33.2614 21.848C33.6668 21.528 34.0774 21.368 34.4934 21.368C34.9201 21.368 35.2614 21.4373 35.5174 21.576C35.7734 21.704 35.9761 21.8533 36.1254 22.024C36.2854 22.184 36.4241 22.424 36.5414 22.744C36.6588 23.064 36.7388 23.3253 36.7814 23.528C36.8348 23.7307 36.8774 24.024 36.9094 24.408C36.9521 24.92 36.9734 25.384 36.9734 25.8C36.1201 26.0347 35.0161 26.248 33.6614 26.44C33.6934 26.8667 33.7681 27.208 33.8854 27.464C34.0028 27.72 34.1414 27.848 34.3014 27.848ZM34.6534 22.936C34.4188 22.936 34.2054 23.1707 34.0134 23.64C33.8321 24.1093 33.7254 24.6533 33.6934 25.272C34.2588 25.1547 34.7494 25.0427 35.1654 24.936C35.1654 23.6027 34.9948 22.936 34.6534 22.936ZM38.5344 29.189C38.7164 25.829 38.8074 22.833 38.8074 20.201C38.8074 17.569 38.8004 15.84 38.7864 15.014C40.3264 14.286 41.9294 13.922 43.5954 13.922C44.8274 13.922 45.8564 14.314 46.6824 15.098C47.5224 15.882 47.9424 16.988 47.9424 18.416C47.9424 20.068 46.7734 21.657 44.4354 23.183C45.7094 24.779 47.0114 26.536 48.3414 28.454L46.3254 29.945C45.4434 28.615 43.8614 26.445 41.5794 23.435C41.5374 25.591 41.4744 27.614 41.3904 29.504L38.5344 29.189ZM41.6424 22.007C42.6784 21.517 43.5604 20.915 44.2884 20.201C45.0164 19.473 45.3804 18.815 45.3804 18.227C45.3804 17.639 45.2054 17.184 44.8554 16.862C44.5194 16.54 44.0714 16.379 43.5114 16.379C42.9514 16.379 42.3354 16.498 41.6634 16.736C41.6634 19.102 41.6564 20.859 41.6424 22.007Z" fill="url(#paint0_linear_5_105)"/>
<path d="M4.168 32.36C5.416 31.976 6.54133 31.784 7.544 31.784C8.55733 31.784 9.416 32.056 10.12 32.6C10.824 33.1333 11.176 33.7947 11.176 34.584C11.176 35.768 10.5147 36.7067 9.192 37.4C10.4293 37.9013 11.048 38.7387 11.048 39.912C11.048 40.776 10.5947 41.5493 9.688 42.232C8.78133 42.904 7.832 43.24 6.84 43.24C6.712 43.24 5.8 43.1653 4.104 43.016C4.25333 40.7227 4.328 38.792 4.328 37.224C4.328 35.656 4.27467 34.0347 4.168 32.36ZM9.016 34.808C9.016 34.488 8.856 34.2213 8.536 34.008C8.22667 33.784 7.89067 33.672 7.528 33.672C7.176 33.672 6.79733 33.736 6.392 33.864C6.43467 35.144 6.456 36.1093 6.456 36.76C6.94667 36.7173 7.496 36.4987 8.104 36.104C8.712 35.6987 9.016 35.2667 9.016 34.808ZM7.192 41.288C7.544 41.288 7.91733 41.1493 8.312 40.872C8.70667 40.584 8.904 40.2587 8.904 39.896C8.904 39.5227 8.67467 39.1973 8.216 38.92C7.75733 38.6427 7.16533 38.472 6.44 38.408C6.41867 39.6667 6.39733 40.6107 6.376 41.24C6.568 41.272 6.84 41.288 7.192 41.288Z" fill="#D15F1E"/>
<path d="M37.5545 43.144C37.6932 40.584 37.7625 38.3013 37.7625 36.296C37.7625 34.2907 37.7572 32.9733 37.7465 32.344C38.9198 31.7893 40.1412 31.512 41.4105 31.512C42.3492 31.512 43.1332 31.8107 43.7625 32.408C44.4025 33.0053 44.7225 33.848 44.7225 34.936C44.7225 36.1947 43.8318 37.4053 42.0505 38.568C43.0212 39.784 44.0132 41.1227 45.0265 42.584L43.4905 43.72C42.8185 42.7067 41.6132 41.0533 39.8745 38.76C39.8425 40.4027 39.7945 41.944 39.7305 43.384L37.5545 43.144ZM39.9225 37.672C40.7118 37.2987 41.3838 36.84 41.9385 36.296C42.4932 35.7413 42.7705 35.24 42.7705 34.792C42.7705 34.344 42.6372 33.9973 42.3705 33.752C42.1145 33.5067 41.7732 33.384 41.3465 33.384C40.9198 33.384 40.4505 33.4747 39.9385 33.656C39.9385 35.4587 39.9332 36.7973 39.9225 37.672Z" fill="#E67D40"/>
<path d="M16.914 32.903L16.888 34.957C16.888 36.8897 16.9227 38.311 16.992 39.221L15.705 39.091C15.679 38.727 15.6227 38.3587 15.536 37.986C15.0593 38.688 14.5783 39.039 14.093 39.039C13.6163 39.039 13.235 38.8743 12.949 38.545C12.663 38.2157 12.52 37.7607 12.52 37.18C12.52 36.0533 12.6023 34.71 12.767 33.15L14.275 33.293C14.119 34.775 14.041 36.0057 14.041 36.985C14.041 37.427 14.1797 37.648 14.457 37.648C14.587 37.648 14.743 37.4703 14.925 37.115C15.1157 36.7597 15.2673 36.3307 15.38 35.828C15.3713 35.6373 15.367 35.412 15.367 35.152C15.367 34.892 15.38 34.099 15.406 32.773L16.914 32.903ZM20.566 34.307C20.202 34.307 19.929 34.7663 19.747 35.685C19.7643 36.2917 19.773 36.8723 19.773 37.427C19.773 37.9817 19.7557 38.6057 19.721 39.299L18.213 39.169C18.239 37.895 18.252 37.193 18.252 37.063C18.252 35.4597 18.174 34.2333 18.018 33.384L18.993 33.488C19.0537 33.7393 19.123 33.9603 19.201 34.151C19.6257 33.241 20.0547 32.786 20.488 32.786C20.8433 32.786 21.1553 32.942 21.424 33.254L21.086 34.45C20.9473 34.3547 20.774 34.307 20.566 34.307ZM23.8781 40.742C24.1468 40.742 24.3635 40.4647 24.5281 39.91C24.6928 39.364 24.7751 38.6837 24.7751 37.869C24.3158 38.6923 23.8391 39.104 23.3451 39.104C22.8598 39.104 22.4655 38.9393 22.1621 38.61C21.8675 38.272 21.7201 37.765 21.7201 37.089C21.7201 36.4043 21.8371 35.7283 22.0711 35.061C22.3051 34.385 22.5911 33.8477 22.9291 33.449C23.2758 33.0417 23.6051 32.838 23.9171 32.838C24.4631 32.838 24.9658 33.059 25.4251 33.501L26.3351 33.631C26.2225 34.1943 26.1661 35.061 26.1661 36.231C26.1661 37.3923 26.1315 38.2503 26.0621 38.805C26.0015 39.351 25.8975 39.8883 25.7501 40.417C25.6028 40.9457 25.3861 41.366 25.1001 41.678C24.8141 41.99 24.4371 42.146 23.9691 42.146C23.5011 42.146 23.0548 41.9553 22.6301 41.574C22.2055 41.2013 21.8631 40.7507 21.6031 40.222L22.6951 39.754C23.0331 40.4127 23.4275 40.742 23.8781 40.742ZM24.2421 34.164C24.0255 34.164 23.8045 34.476 23.5791 35.1C23.3625 35.724 23.2541 36.387 23.2541 37.089C23.2541 37.3577 23.2888 37.5613 23.3581 37.7C23.4361 37.8387 23.5185 37.908 23.6051 37.908C23.7005 37.908 23.8218 37.8213 23.9691 37.648C24.1165 37.4747 24.2725 37.1973 24.4371 36.816C24.6105 36.4347 24.7361 36.0143 24.8141 35.555L24.8401 34.567C24.5888 34.2983 24.3895 34.164 24.2421 34.164ZM31.539 32.903L31.513 34.957C31.513 36.8897 31.5477 38.311 31.617 39.221L30.33 39.091C30.304 38.727 30.2477 38.3587 30.161 37.986C29.6843 38.688 29.2033 39.039 28.718 39.039C28.2413 39.039 27.86 38.8743 27.574 38.545C27.288 38.2157 27.145 37.7607 27.145 37.18C27.145 36.0533 27.2273 34.71 27.392 33.15L28.9 33.293C28.744 34.775 28.666 36.0057 28.666 36.985C28.666 37.427 28.8047 37.648 29.082 37.648C29.212 37.648 29.368 37.4703 29.55 37.115C29.7407 36.7597 29.8923 36.3307 30.005 35.828C29.9963 35.6373 29.992 35.412 29.992 35.152C29.992 34.892 30.005 34.099 30.031 32.773L31.539 32.903ZM34.476 38.064C34.8053 38.064 35.1563 37.7477 35.529 37.115L36.517 37.7C36.3523 37.986 36.192 38.2287 36.036 38.428C35.8887 38.6273 35.6633 38.818 35.36 39C35.0567 39.182 34.7187 39.273 34.346 39.273C33.8 39.273 33.3407 39.0433 32.968 38.584C32.5953 38.116 32.409 37.4877 32.409 36.699C32.409 35.7977 32.5693 34.957 32.89 34.177C33.0633 33.7697 33.3103 33.4403 33.631 33.189C33.9603 32.929 34.294 32.799 34.632 32.799C34.9787 32.799 35.256 32.8553 35.464 32.968C35.672 33.072 35.8367 33.1933 35.958 33.332C36.088 33.462 36.2007 33.657 36.296 33.917C36.3913 34.177 36.4563 34.3893 36.491 34.554C36.5343 34.7187 36.569 34.957 36.595 35.269C36.6297 35.685 36.647 36.062 36.647 36.4C35.9537 36.5907 35.0567 36.764 33.956 36.92C33.982 37.2667 34.0427 37.544 34.138 37.752C34.2333 37.96 34.346 38.064 34.476 38.064ZM34.762 34.073C34.5713 34.073 34.398 34.2637 34.242 34.645C34.0947 35.0263 34.008 35.4683 33.982 35.971C34.4413 35.8757 34.84 35.7847 35.178 35.698C35.178 34.6147 35.0393 34.073 34.762 34.073Z" fill="url(#paint1_linear_5_105)"/>
<path fill-rule="evenodd" clip-rule="evenodd" d="M35.6206 13.1414L29.8922 13.1415C28.9768 13.1415 28.1905 13.7189 27.8788 14.5265C27.7846 14.7668 27.7344 15.0275 27.7344 15.2992C27.7344 15.6151 27.8032 15.9165 27.9272 16.1883C28.2677 16.9347 29.0209 17.4569 29.8921 17.4569L35.6205 17.4568C36.8076 17.4568 37.779 16.4853 37.7782 15.2991C37.7783 14.1119 36.8077 13.1414 35.6206 13.1414Z" fill="#E67D40"/>
<path fill-rule="evenodd" clip-rule="evenodd" d="M27.8788 14.5264L21.5442 14.5266L21.5441 16.1875L27.9272 16.1882C27.8033 15.9165 27.7345 15.615 27.7345 15.2992C27.7345 15.0275 27.7846 14.7668 27.8788 14.5264Z" fill="#E0E0E0"/>
<path fill-rule="evenodd" clip-rule="evenodd" d="M20.0845 11.8067L14.1404 11.8068C13.338 11.8077 12.6816 12.4641 12.6807 13.2665L12.6815 17.4486C12.6807 18.2511 13.3371 18.9074 14.1404 18.9074L20.0844 18.9074C20.8869 18.9082 21.5441 18.251 21.5433 17.4485L21.5441 16.1875L21.5442 14.5266L21.5442 13.2664C21.5434 12.4639 20.887 11.8076 20.0845 11.8067Z" fill="#F7F7F7"/>
<path fill-rule="evenodd" clip-rule="evenodd" d="M27.7345 15.3569L21.5442 15.357L21.5442 16.1875L27.9272 16.1882C27.8109 15.9326 27.743 15.6524 27.7345 15.3569Z" fill="#C9C7C7"/>
<path fill-rule="evenodd" clip-rule="evenodd" d="M21.5442 16.6172C21.5442 17.4205 20.8877 18.0769 20.0844 18.0769L14.1404 18.0769C13.3405 18.0769 12.6849 17.4248 12.6815 16.6249L12.6815 17.4486C12.6806 18.251 13.337 18.9074 14.1403 18.9074L20.0844 18.9073C20.8869 18.9082 21.5441 18.2509 21.5433 17.4485L21.5442 16.6172Z" fill="#E0E0E0"/>
<path fill-rule="evenodd" clip-rule="evenodd" d="M35.2198 16.2221L29.4905 16.223C28.7687 16.223 28.1268 15.863 27.7345 15.3145C27.7336 15.3289 27.7345 15.3433 27.7345 15.3569C27.743 15.6524 27.8109 15.9326 27.9272 16.1882C28.2677 16.9346 29.0209 17.4568 29.8921 17.4568L35.6205 17.4567C36.8076 17.4567 37.7791 16.4853 37.7782 15.299C37.7783 14.8337 37.6296 14.4032 37.3774 14.0491C37.3774 14.0542 37.3774 14.0593 37.3774 14.0644C37.3775 15.2515 36.406 16.223 35.2198 16.2221Z" fill="#D15F1E"/>
<path d="M19.7039 14.2633C19.7039 14.0762 19.5524 13.9247 19.3653 13.9247L14.8647 13.9247C14.6776 13.9247 14.5261 14.0762 14.5261 14.2633C14.5261 14.3569 14.564 14.4415 14.6253 14.5028C14.6866 14.5641 14.7712 14.602 14.8647 14.602L19.3653 14.602C19.5524 14.602 19.7039 14.4504 19.7039 14.2633Z" fill="black"/>
<path d="M14.5167 16.5451C14.5167 16.6386 14.5546 16.7233 14.6159 16.7846C14.6771 16.8458 14.7618 16.8837 14.8554 16.8837L19.3567 16.8846C19.5437 16.8847 19.6954 16.733 19.6954 16.5459C19.6954 16.3588 19.5438 16.2072 19.3567 16.2072L14.8554 16.2064C14.6684 16.2063 14.5167 16.358 14.5167 16.5451Z" fill="black"/>
<path d="M38.1169 15.2991C38.117 13.9224 36.9971 12.8029 35.6206 12.8028L29.8922 12.8028C28.9153 12.8028 28.07 13.3682 27.6602 14.1877L21.8827 14.1879L21.8829 13.2664C21.8819 12.2759 21.0753 11.469 20.0846 11.4681L14.1402 11.468C13.1497 11.4692 12.3432 12.2757 12.3421 13.2666L12.3429 17.4482C12.3424 17.9266 12.5292 18.3775 12.8692 18.7177C12.8694 18.7179 12.8696 18.7182 12.87 18.7185C13.2101 19.0587 13.6614 19.2462 14.1404 19.2462L20.084 19.2462C20.5628 19.2466 21.0139 19.0593 21.3546 18.7186C21.6952 18.378 21.8825 17.9268 21.882 17.4484L21.8822 16.5262L27.7219 16.527C27.832 16.7202 27.9668 16.901 28.1286 17.0628C28.6012 17.5353 29.2275 17.7957 29.8921 17.7955L35.6206 17.7954C36.2852 17.7955 36.9116 17.5351 37.3844 17.0623C37.8573 16.5894 38.1175 15.9632 38.1169 15.2991ZM20.8756 18.2396C20.6631 18.4521 20.3823 18.5689 20.0843 18.5687L14.1404 18.5688C13.8423 18.5687 13.5613 18.4519 13.349 18.2395C13.3487 18.2393 13.3486 18.2392 13.3484 18.239C13.1365 18.0268 13.0199 17.7463 13.0203 17.4487L13.0195 13.2669C13.0201 12.6491 13.5231 12.1461 14.1405 12.1454L20.0842 12.1455C20.3929 12.1458 20.6731 12.2716 20.8763 12.4747C21.0793 12.6777 21.2051 12.9579 21.2054 13.2667L21.2045 17.4488C21.2048 17.7464 21.088 18.0272 20.8756 18.2396ZM27.457 15.8495L21.8828 15.8488L21.8829 14.8652L27.4334 14.8651C27.3764 15.1886 27.384 15.5292 27.457 15.8495ZM35.6206 17.1181L29.892 17.1182C29.4084 17.1182 28.9522 16.9284 28.6076 16.5838C28.263 16.2392 28.0731 15.7829 28.0731 15.2992C28.0732 14.2962 28.8892 13.4802 29.8922 13.4801L35.6206 13.4801C36.6234 13.4801 37.4394 14.2962 37.4396 15.2993C37.4399 15.7824 37.2503 16.2384 36.9054 16.5833C36.5605 16.9282 36.1042 17.1181 35.6206 17.1181Z" fill="black" fill-opacity="0.75"/>
<path fill-rule="evenodd" clip-rule="evenodd" d="M12.9031 46.3823L18.6315 46.3822C19.5469 46.3822 20.3332 45.8048 20.6449 44.9972C20.7391 44.7569 20.7892 44.4962 20.7892 44.2245C20.7893 43.9086 20.7205 43.6071 20.5965 43.3354C20.256 42.589 19.5028 42.0668 18.6316 42.0668L12.9032 42.0669C11.7161 42.0669 10.7447 43.0384 10.7455 44.2246C10.7454 45.4117 11.716 46.3823 12.9031 46.3823Z" fill="#E67D40"/>
<path fill-rule="evenodd" clip-rule="evenodd" d="M20.6449 44.9972L26.9795 44.9971L26.9796 43.3362L20.5965 43.3355C20.7204 43.6072 20.7892 43.9086 20.7892 44.2245C20.7892 44.4962 20.7391 44.7569 20.6449 44.9972Z" fill="#E0E0E0"/>
<path fill-rule="evenodd" clip-rule="evenodd" d="M28.4392 47.717L34.3833 47.7169C35.1857 47.716 35.8421 47.0596 35.843 46.2571L35.8422 42.0751C35.843 41.2726 35.1866 40.6162 34.3833 40.6162L28.4393 40.6163C27.6368 40.6155 26.9796 41.2727 26.9804 42.0752L26.9796 43.3362L26.9795 44.9971L26.9795 46.2573C26.9803 47.0597 27.6367 47.7161 28.4392 47.717Z" fill="#F7F7F7"/>
<path fill-rule="evenodd" clip-rule="evenodd" d="M20.7892 44.1668L26.9795 44.1667L26.9795 43.3362L20.5965 43.3355C20.7128 43.591 20.7807 43.8713 20.7892 44.1668Z" fill="#C9C7C7"/>
<path fill-rule="evenodd" clip-rule="evenodd" d="M26.9795 42.9065C26.9795 42.1032 27.636 41.4468 28.4393 41.4468L34.3833 41.4468C35.1832 41.4468 35.8388 42.0989 35.8422 42.8988L35.8422 42.0751C35.8431 41.2727 35.1867 40.6163 34.3834 40.6163L28.4393 40.6163C27.6368 40.6155 26.9796 41.2728 26.9804 42.0752L26.9795 42.9065Z" fill="#E0E0E0"/>
<path fill-rule="evenodd" clip-rule="evenodd" d="M13.3039 43.3016L19.0332 43.3007C19.755 43.3007 20.3969 43.6607 20.7892 44.2092C20.7901 44.1948 20.7892 44.1803 20.7892 44.1668C20.7807 43.8713 20.7128 43.5911 20.5965 43.3355C20.256 42.5891 19.5028 42.0668 18.6316 42.0668L12.9032 42.0669C11.7161 42.067 10.7446 43.0384 10.7455 44.2246C10.7454 44.69 10.894 45.1205 11.1462 45.4746C11.1462 45.4695 11.1462 45.4644 11.1462 45.4593C11.1462 44.2722 12.1177 43.3007 13.3039 43.3016Z" fill="#D15F1E"/>
<path d="M28.8198 45.2603C28.8198 45.4474 28.9713 45.599 29.1584 45.599L33.659 45.599C33.8461 45.599 33.9976 45.4474 33.9976 45.2603C33.9976 45.1668 33.9597 45.0822 33.8984 45.0209C33.8371 44.9596 33.7525 44.9217 33.659 44.9217L29.1584 44.9217C28.9713 44.9217 28.8198 45.0732 28.8198 45.2603Z" fill="black"/>
<path d="M34.007 42.9786C34.007 42.8851 33.9691 42.8004 33.9078 42.7391C33.8466 42.6778 33.7619 42.64 33.6683 42.64L29.167 42.6391C28.98 42.639 28.8283 42.7907 28.8283 42.9778C28.8283 43.1649 28.9799 43.3164 29.167 43.3164L33.6683 43.3173C33.8553 43.3174 34.007 43.1657 34.007 42.9786Z" fill="black"/>
<path d="M10.4068 44.2246C10.4067 45.6013 11.5266 46.7208 12.9031 46.7209L18.6315 46.7209C19.6084 46.7208 20.4537 46.1555 20.8635 45.336L26.641 45.3358L26.6408 46.2573C26.6418 47.2477 27.4484 48.0546 28.4391 48.0556L34.3835 48.0557C35.374 48.0545 36.1805 47.2479 36.1816 46.2571L36.1808 42.0755C36.1813 41.5971 35.9945 41.1461 35.6545 40.806C35.6543 40.8057 35.6541 40.8055 35.6537 40.8052C35.3136 40.465 34.8623 40.2775 34.3833 40.2775L28.4397 40.2775C27.9609 40.2771 27.5098 40.4644 27.1691 40.805C26.8285 41.1457 26.6412 41.5969 26.6417 42.0752L26.6415 42.9975L20.8018 42.9967C20.6917 42.8035 20.5569 42.6227 20.3951 42.4609C19.9225 41.9883 19.2962 41.728 18.6316 41.7281L12.9031 41.7283C12.2385 41.7281 11.6121 41.9886 11.1393 42.4614C10.6664 42.9343 10.4062 43.5605 10.4068 44.2246ZM27.6481 41.2841C27.8606 41.0716 28.1414 40.9548 28.4394 40.955L34.3833 40.9549C34.6814 40.955 34.9624 41.0718 35.1747 41.2842C35.175 41.2844 35.1751 41.2845 35.1753 41.2847C35.3872 41.4969 35.5038 41.7774 35.5034 42.075L35.5042 46.2568C35.5036 46.8746 35.0006 47.3775 34.3832 47.3783L28.4395 47.3782C28.1307 47.3779 27.8506 47.2521 27.6474 47.049C27.4444 46.846 27.3186 46.5658 27.3182 46.2569L27.3192 42.0749C27.3189 41.7773 27.4357 41.4965 27.6481 41.2841ZM21.0667 43.6742L26.6409 43.6749L26.6408 44.6585L21.0903 44.6586C21.1473 44.3351 21.1397 43.9945 21.0667 43.6742ZM12.9031 42.4056L18.6317 42.4055C19.1153 42.4055 19.5715 42.5953 19.9161 42.9399C20.2607 43.2845 20.4506 43.7408 20.4506 44.2245C20.4505 45.2275 19.6345 46.0435 18.6315 46.0436L12.9031 46.0436C11.9002 46.0436 11.0843 45.2275 11.0841 44.2244C11.0838 43.7413 11.2734 43.2853 11.6183 42.9404C11.9632 42.5955 12.4195 42.4056 12.9031 42.4056Z" fill="black" fill-opacity="0.75"/>
<defs>
<linearGradient id="paint0_linear_5_105" x1="13" y1="23.5" x2="42" y2="23" gradientUnits="userSpaceOnUse">
<stop stop-color="#E67D40"/>
<stop offset="1" stop-color="#D15F1E"/>
</linearGradient>
<linearGradient id="paint1_linear_5_105" x1="13.5" y1="37.5" x2="37" y2="37.5" gradientUnits="userSpaceOnUse">
<stop stop-color="#D15F1E"/>
<stop offset="1" stop-color="#E67D40"/>
</linearGradient>
</defs>
</svg>
